<svg width="49" height="48" viewBox="0 0 49 48" fill="none" xmlns="http://www.w3.org/2000/svg">
<mask id="mask0_0_2358" style="mask-type:alpha" maskUnits="userSpaceOnUse" x="0" y="0" width="49" height="48">
<rect x="0.820312" width="48" height="48" fill="red"/>
</mask>
<g mask="url(#mask0_0_2358)">
<path d="M13.3703 39.9999C10.437 39.9999 7.94531 38.9749 5.89531 36.9249C3.84531 34.8749 2.82031 32.3832 2.82031 29.4499C2.82031 26.8166 3.66198 24.5249 5.34531 22.5749C7.02865 20.6249 9.13698 19.4499 11.6703 19.0499C12.1703 16.2499 13.537 13.7749 15.7703 11.6249C18.0036 9.4749 20.537 8.3999 23.3703 8.3999C24.1703 8.3999 24.8703 8.6249 25.4703 9.0749C26.0703 9.5249 26.3703 10.1332 26.3703 10.8999V25.5999L30.5203 21.4499L32.6703 23.5999L24.8703 31.3999L17.0703 23.5999L19.2203 21.4499L23.3703 25.5999V11.1499C20.5036 11.5166 18.2536 12.7749 16.6203 14.9249C14.987 17.0749 14.1703 19.3999 14.1703 21.8999H13.2203C11.187 21.8999 9.44531 22.6166 7.99531 24.0499C6.54531 25.4832 5.82031 27.2832 5.82031 29.4499C5.82031 31.6166 6.57031 33.4166 8.07031 34.8499C9.57031 36.2832 11.337 36.9999 13.3703 36.9999H38.3703C39.8703 36.9999 41.1536 36.4666 42.2203 35.3999C43.287 34.3332 43.8203 33.0499 43.8203 31.5499C43.8203 30.0499 43.287 28.7666 42.2203 27.6999C41.1536 26.6332 39.8703 26.0999 38.3703 26.0999H35.2203V21.8999C35.2203 19.6332 34.6703 17.6749 33.5703 16.0249C32.4703 14.3749 31.0536 13.0666 29.3203 12.0999V8.8499C32.0203 9.81657 34.1786 11.4999 35.7953 13.8999C37.412 16.2999 38.2203 18.9666 38.2203 21.8999V23.0999C40.6203 23.0332 42.6536 23.7999 44.3203 25.3999C45.987 26.9999 46.8203 29.0499 46.8203 31.5499C46.8203 33.8499 45.987 35.8332 44.3203 37.4999C42.6536 39.1666 40.6703 39.9999 38.3703 39.9999H13.3703Z" fill="red"/>
</g>
</svg>
