<svg width="411" height="216" viewBox="0 0 411 216" fill="none" xmlns="http://www.w3.org/2000/svg">
<path d="M102.039 202.52V167.04L58.3594 184.78L102.039 202.53V202.52Z" fill="#42B9E5"/>
<path d="M110.868 67.5596L55.4375 90.0696V90.0796L110.868 112.59H110.877V67.5596H110.868Z" fill="#2D76BA"/>
<path style="mix-blend-mode:multiply" opacity="0.5" d="M55.4375 135.11L65.6275 130.98L110.868 112.6L55.4375 90.0801L55.4375 135.11Z" fill="url(#paint0_linear_0_1405)"/>
<path d="M166.312 90.07L221.743 67.56L166.312 45.04V90.07Z" fill="#26A9E1"/>
<path d="M166.313 45.04L110.883 67.56L166.313 90.08V90.07V45.04Z" fill="#2D76BA"/>
<path d="M277.211 44.7695L221.781 67.2895L277.211 89.8095L277.221 89.7995V44.7695H277.211Z" fill="#2D76BA"/>
<path d="M332.617 67.56L277.188 45.04V90.07L332.617 67.56Z" fill="#42B9E5"/>
<path d="M388.047 45.0395L332.617 22.5195V67.5595L388.047 45.0395Z" fill="#2D76BA"/>
<path d="M110.877 67.5595V22.5195H110.868L55.4375 45.0395L110.868 67.5595H110.877Z" fill="#2D76BA"/>
<path d="M166.313 45.04V0L110.883 22.52L110.883 67.56L166.313 45.04Z" fill="#42B9E5"/>
<path d="M166.312 45.04L221.743 22.52L166.312 0V45.04Z" fill="#2D76BA"/>
<path d="M55.44 0L0 22.52L55.44 45.04L55.44 0Z" fill="#07519C"/>
<path d="M277.192 0L277.182 0L221.752 22.52H221.742H221.752V67.56L277.182 45.04H277.192V0Z" fill="#42B9E5"/>
<path d="M277.188 90.0696V90.0796L332.617 112.59V67.5596L277.188 90.0696Z" fill="#26A9E1"/>
<path d="M70.9175 141.4L55.4375 135.12L55.4375 180.15L110.868 157.63L70.9175 141.4Z" fill="#07519C"/>
<path style="mix-blend-mode:multiply" opacity="0.5" d="M110.87 157.63H110.88L166.31 135.11L110.88 112.6V112.59H110.87L65.63 130.97L55.44 135.11L55.44 90.0795V90.0695L110.87 67.5595L55.44 45.0395L0 22.5195L0 67.5495L0 67.5595L55.44 90.0795L0 112.59L55.44 135.11H55.43H55.44V135.12L70.92 141.4L110.87 157.63Z" fill="url(#paint1_linear_0_1405)"/>
<path d="M110.883 112.59V112.6L166.313 135.11V90.0801L110.883 112.59Z" fill="white"/>
<path d="M225.062 137.47L244.323 129.64L225.062 121.82V137.47Z" fill="#0E58A4"/>
<path d="M106.727 182.69L125.987 174.86L106.727 167.04V182.69Z" fill="#0E58A4"/>
<path d="M338.898 113.08L369.148 100.8L338.898 88.5098V113.08Z" fill="#26A9E1"/>
<path d="M277.18 90.0803H277.19V90.0703L277.18 90.0803Z" fill="#081B20"/>
<path d="M277.18 90.07L221.76 67.55H221.75V112.58L277.18 90.07Z" fill="white"/>
<path d="M0 67.5503L55.42 90.0703L55.43 90.0603L55.44 90.0703L55.44 45.0403L55.43 45.0303L0 67.5503Z" fill="#07519C"/>
<path d="M0 112.6L55.42 135.11H55.43H55.44L55.44 90.0801H55.43L0 112.6Z" fill="#07519C"/>
<path d="M110.883 157.62L121.073 153.48L166.313 135.11L110.883 112.59V157.62Z" fill="#42B9E5"/>
<path d="M110.969 112.3L121.159 108.16L166.399 89.7798L110.969 67.2598V112.3Z" fill="#42B9E5"/>
<path d="M56.0625 134.93L66.2425 130.79L111.492 112.41L56.0625 89.9004L56.0625 134.93Z" fill="#2D76BA"/>
<defs>
<linearGradient id="paint0_linear_0_1405" x1="104.878" y1="71.0301" x2="58.6875" y2="135.48" gradientUnits="userSpaceOnUse">
<stop offset="0.37" stop-color="#0B1E23"/>
<stop offset="0.4" stop-color="#39484C"/>
<stop offset="0.43" stop-color="#626E71"/>
<stop offset="0.46" stop-color="#879193"/>
<stop offset="0.49" stop-color="#A8AFB0"/>
<stop offset="0.53" stop-color="#C3C8C9"/>
<stop offset="0.57" stop-color="#D9DCDD"/>
<stop offset="0.62" stop-color="#EAECEC"/>
<stop offset="0.68" stop-color="#F6F7F7"/>
<stop offset="0.76" stop-color="#FDFDFD"/>
<stop offset="1" stop-color="white"/>
</linearGradient>
<linearGradient id="paint1_linear_0_1405" x1="38.91" y1="151.75" x2="56.18" y2="123.27" gradientUnits="userSpaceOnUse">
<stop offset="0.37" stop-color="#0B1E23"/>
<stop offset="0.4" stop-color="#39484C"/>
<stop offset="0.43" stop-color="#626E71"/>
<stop offset="0.46" stop-color="#879193"/>
<stop offset="0.49" stop-color="#A8AFB0"/>
<stop offset="0.53" stop-color="#C3C8C9"/>
<stop offset="0.57" stop-color="#D9DCDD"/>
<stop offset="0.62" stop-color="#EAECEC"/>
<stop offset="0.68" stop-color="#F6F7F7"/>
<stop offset="0.76" stop-color="#FDFDFD"/>
<stop offset="1" stop-color="white"/>
</linearGradient>
</defs>
</svg>
