<svg width="174" height="53" viewBox="0 0 174 53" fill="none" xmlns="http://www.w3.org/2000/svg">
<path d="M5.23952 21.6792H0V0H14.9102C16.0268 0 17.0735 0.24424 18.0563 0.726904C19.0391 1.20957 19.8939 1.94229 20.6208 2.90761C21.3942 3.83224 21.9583 4.78594 22.313 5.78034C22.6619 6.77474 22.8422 7.81566 22.8422 8.90893L22.8073 8.94383H22.8829C22.8829 10.0371 22.7027 11.0896 22.3363 12.1073C21.9699 13.125 21.4 14.0961 20.6266 15.0149C19.8997 15.9861 19.0507 16.7013 18.0795 17.1607C17.1084 17.6201 16.0675 17.8528 14.951 17.8528H5.23952V21.6734V21.6792ZM12.6946 13.532C13.5902 13.532 14.3462 13.439 14.951 13.2587C15.5557 13.0785 16.0558 12.7993 16.4397 12.4213C16.8293 12.0433 17.1259 11.5723 17.3294 11.0024C17.5329 10.4325 17.6725 9.75795 17.7481 8.98453C17.7016 8.403 17.5853 7.83311 17.405 7.27485C17.2247 6.71659 16.9339 6.22229 16.5327 5.78615C16.1314 5.35001 15.6197 5.0011 14.9858 4.7336C14.352 4.4661 13.5786 4.33234 12.6598 4.33234H5.23952V13.532H12.6946Z" fill="#001C2B"/>
<path d="M46.7185 21.6792V17.8586H34.1344V21.6792H28.9355V0H43.8458C44.9856 0 46.0381 0.261683 47.0093 0.779239C47.9804 1.30261 48.8178 1.98881 49.5215 2.83201C50.2251 3.68104 50.7776 4.64055 51.1788 5.70474C51.5801 6.77474 51.7778 7.83893 51.7778 8.90312V21.6675H46.7243L46.7185 21.6792ZM41.5895 4.33234H34.1693V13.6076H46.6836V8.65888C46.5615 8.17621 46.3871 7.6761 46.1544 7.17018C45.9218 6.65844 45.6078 6.19322 45.2066 5.76871C44.8053 5.34419 44.311 5.0011 43.7179 4.7336C43.1247 4.4661 42.4152 4.33234 41.5895 4.33234Z" fill="#001C2B"/>
<path d="M62.6004 21.6792H57.3608V0H72.2711C73.3876 0 74.4285 0.232611 75.3997 0.692014C76.3708 1.15142 77.2198 1.86669 77.9467 2.83783C78.7202 3.76246 79.2901 4.72778 79.6564 5.74545C80.0228 6.76311 80.2031 7.82148 80.2031 8.90893L80.1682 8.94383H80.2438C80.2438 10.0371 80.0693 11.0896 79.7146 12.1073C79.3657 13.125 78.8016 14.1077 78.0223 15.0556C77.2198 16.0035 76.3359 16.7188 75.3648 17.2015L78.7493 21.6734H73.0736L70.2358 17.8528H62.6004V21.6734V21.6792ZM70.0555 13.532C70.951 13.532 71.6954 13.439 72.2943 13.2587C72.8875 13.0785 73.3644 12.8051 73.7307 12.4388C74.0971 12.0724 74.3646 11.613 74.5507 11.0547C74.7309 10.4965 74.8589 9.82773 74.9345 9.05431C74.8879 8.47278 74.7775 7.89709 74.6088 7.32719C74.4402 6.7573 74.1727 6.25137 73.8063 5.79778C73.4399 5.35001 72.9573 4.98946 72.3525 4.72196C71.7477 4.45446 70.9685 4.32071 70.0264 4.32071H62.6062V13.5204H70.0613L70.0555 13.532Z" fill="#001C2B"/>
<path d="M107.07 4.32653H98.8882V21.6734H93.794V4.32653H85.8271V0H107.07V4.32653Z" fill="#001C2B"/>
<path d="M155.304 21.6441V4.29726H153.961C152.699 4.29726 151.652 4.40193 150.815 4.60546C149.977 4.809 149.308 5.09394 148.814 5.4603C148.314 5.82666 147.965 6.2628 147.762 6.76873C147.558 7.28047 147.453 7.85036 147.453 8.47841V21.679H142.4V7.38514C142.4 6.2221 142.586 5.18699 142.964 4.274C143.342 3.36682 143.97 2.58758 144.854 1.94791C145.738 1.30823 146.918 0.819754 148.401 0.494101C149.878 0.168448 151.733 0.00561523 153.966 0.00561523H161.968C164.172 0.00561523 166.021 0.168448 167.516 0.494101C169.005 0.819754 170.197 1.30823 171.081 1.94791C171.965 2.5934 172.598 3.36682 172.971 4.274C173.349 5.18118 173.535 6.2221 173.535 7.38514V21.679H168.481V8.47841C168.481 7.85036 168.377 7.28047 168.173 6.76873C167.964 6.25699 167.615 5.82085 167.12 5.4603C166.626 5.09976 165.957 4.809 165.12 4.60546C164.283 4.40193 163.236 4.29726 161.974 4.29726H160.631V21.6441H155.321H155.304Z" fill="#001C2B"/>
<path d="M62.6004 53.0002H57.3608V31.321H72.2711C73.3876 31.321 74.4344 31.5653 75.4171 32.0479C76.3999 32.5306 77.2547 33.2633 77.9816 34.2287C78.7551 35.1533 79.3191 36.107 79.6739 37.1014C80.0228 38.0958 80.2031 39.1367 80.2031 40.23L80.1682 40.2649H80.2438C80.2438 41.3581 80.0635 42.4107 79.6971 43.4284C79.3308 44.446 78.7609 45.4172 77.9875 46.336C77.2606 47.3071 76.4115 48.0224 75.4404 48.4818C74.4692 48.9412 73.4283 49.1738 72.3118 49.1738H62.6004V52.9944V53.0002ZM70.0555 44.8531C70.951 44.8531 71.707 44.76 72.3118 44.5798C72.9166 44.3995 73.4167 44.1204 73.8005 43.7424C74.1901 43.3644 74.4867 42.8934 74.6902 42.3235C74.8938 41.7536 75.0333 41.079 75.1089 40.3056C75.0624 39.7241 74.9461 39.1542 74.7658 38.5959C74.5856 38.0376 74.2948 37.5433 73.8935 37.1072C73.4923 36.6711 72.9805 36.3221 72.3467 36.0546C71.7128 35.7871 70.9394 35.6534 70.0206 35.6534H62.6004V44.8531H70.0555Z" fill="#001C2B"/>
<path d="M107.175 52.9997H94.0093C92.4799 52.9997 91.1889 52.7497 90.1364 52.2554C89.0838 51.7611 88.229 51.0458 87.5719 50.1095C86.9147 49.1791 86.4437 48.0335 86.1529 46.6902C85.8622 45.3469 85.7168 43.8116 85.7168 42.0903V31.2856H90.9563V44.4513C90.9563 47.2135 92.5322 48.5976 95.6841 48.5976H107.175V52.9997Z" fill="#001C2B"/>
<path d="M118.001 0V43.3584C118.001 44.062 118.065 44.7366 118.198 45.3762C118.332 46.0217 118.588 46.58 118.96 47.0685C119.338 47.5511 119.856 47.9407 120.524 48.2315C121.193 48.5223 122.06 48.6676 123.124 48.6676H131.271V0H136.511V53H120.873C119.757 53 118.716 52.7674 117.745 52.308C116.774 51.8486 115.925 51.1333 115.198 50.1622C114.424 49.2434 113.854 48.2722 113.488 47.2546C113.122 46.2369 112.941 45.1785 112.941 44.0911V0.00581203H117.995L118.001 0Z" fill="#045FBC"/>
<path d="M149.754 36.6827C148.724 37.2526 148.05 38.3168 147.736 39.8636H166.141V42.2304C166.141 45.6033 165.327 48.2375 163.704 50.1391C162.082 52.0407 159.581 52.9944 156.214 52.9944H142.392V48.4818H154.941C156.47 48.4818 157.755 48.1736 158.796 47.5572C159.837 46.9408 160.506 45.8301 160.797 44.2309H142.392V42.085C142.392 38.7122 143.206 36.0779 144.828 34.1763C146.451 32.2747 148.951 31.321 152.318 31.321H166.141V35.8337H153.592C152.062 35.8337 150.783 36.1186 149.754 36.6885V36.6827Z" fill="#001C2B"/>
</svg>
