<svg width="30" height="39" viewBox="0 0 30 39" fill="none" xmlns="http://www.w3.org/2000/svg">
<path d="M15 17.75C15.7667 17.75 16.4167 17.4833 16.95 16.95C17.4833 16.4167 17.75 15.7667 17.75 15C17.75 14.2333 17.4833 13.5833 16.95 13.05C16.4167 12.5167 15.7667 12.25 15 12.25C14.2333 12.25 13.5833 12.5167 13.05 13.05C12.5167 13.5833 12.25 14.2333 12.25 15C12.25 15.7667 12.5167 16.4167 13.05 16.95C13.5833 17.4833 14.2333 17.75 15 17.75ZM15 36.15C19.3333 32.35 22.6583 28.5833 24.975 24.85C27.2917 21.1167 28.45 17.9667 28.45 15.4C28.45 11.3333 27.1583 8.00833 24.575 5.425C21.9917 2.84167 18.8 1.55 15 1.55C11.2 1.55 8.00833 2.84167 5.425 5.425C2.84167 8.00833 1.55 11.3333 1.55 15.4C1.55 17.9667 2.725 21.1167 5.075 24.85C7.425 28.5833 10.7333 32.35 15 36.15ZM15 38.25C9.93333 33.75 6.16667 29.5833 3.7 25.75C1.23333 21.9167 0 18.4667 0 15.4C0 10.7 1.50833 6.95833 4.525 4.175C7.54167 1.39167 11.0333 0 15 0C18.9667 0 22.4583 1.39167 25.475 4.175C28.4917 6.95833 30 10.7 30 15.4C30 18.4667 28.7667 21.9167 26.3 25.75C23.8333 29.5833 20.0667 33.75 15 38.25Z" fill="#1C1B1F"/>
</svg>
